<svg xmlns="http://www.w3.org/2000/svg" viewBox="0 0 64 64" role="img" aria-label="AI system engineering illustration">
  <defs>
    <linearGradient id="sysA" x1="13" y1="8" x2="54" y2="54" gradientUnits="userSpaceOnUse">
      <stop stop-color="#0078D4"/>
      <stop offset=".58" stop-color="#06B6D4"/>
      <stop offset="1" stop-color="#8B5CF6"/>
    </linearGradient>
  </defs>
  <path d="M20 29c-4 0-8-3-8-8s4-9 10-8c3-5 11-7 17-3 4 2 6 6 6 10h1c5 0 9 4 9 9s-4 9-9 9H20c-5 0-9-4-9-9 0-4 3-8 9-8" fill="url(#sysA)"/>
  <rect x="15" y="39" width="15" height="12" rx="4" fill="#0F172A"/>
  <rect x="34" y="39" width="15" height="12" rx="4" fill="#0F172A"/>
  <path d="M22.5 39v-5h19v5M30 45h4" fill="none" stroke="#94A3B8" stroke-width="2.5" stroke-linecap="round"/>
  <circle cx="22" cy="45" r="2" fill="#22D3EE"/>
  <circle cx="42" cy="45" r="2" fill="#A78BFA"/>
  <path d="M27 24h10m-5-5v10" stroke="#fff" stroke-width="3" stroke-linecap="round"/>
</svg>
